<?xml version="1.0" encoding="UTF-8"?> <!-- Generator: Adobe Illustrator 22.0.1, SVG Export Plug-In . SVG Version: 6.00 Build 0) --> <svg xmlns="http://www.w3.org/2000/svg" xmlns:xlink="http://www.w3.org/1999/xlink" version="1.1" id="bb7f5daf-c604-4816-a1f2-91bd77aa2418" x="0px" y="0px" viewBox="0 0 566.5 71.6" style="enable-background:new 0 0 566.5 71.6;" xml:space="preserve"> <style type="text/css"> .st0{fill:#FFCE44;} .st1{fill:#2D2E87;} .st2{fill:#2A3183;} .st3{fill:#FECD47;} </style> <ellipse class="st0" cx="21.9" cy="36" rx="17.3" ry="17.3"></ellipse> <polyline class="st0" points="0,42.3 40.9,18.7 40.9,21.1 0,44.7 "></polyline> <path class="st1" d="M0,44.7l40.9-23.6v33.5c0,2.7-2.2,4.9-4.9,4.9H0"></path> <path class="st2" d="M59.1,39.2c0-11.9,9.7-21.3,21.9-21.3c5.4,0,10.6,1.8,14.7,5.2l-6.6,7.7c-2.1-1.9-4.9-2.9-7.8-2.8 c-6.4,0-11,4.7-11,11.1s4.3,11.2,11.3,11.2c3.3,0,6.5-1.2,8.9-3.4l5.8,8.2c-4.3,3.5-9.8,5.4-15.3,5.3C68.8,60.6,59.1,51.1,59.1,39.2 z"></path> <path class="st2" d="M97.7,39.2c0-11.8,7.2-21.3,18.5-21.3c4.8,0,9.9,1.9,12.8,5.8v-5h10.8v41H129v-4.9c-2.9,3.9-8,5.7-12.8,5.7 C104.9,60.6,97.7,51.1,97.7,39.2z M128.8,39.2c0-6.4-4.1-11.1-9.8-11.1c-5.9,0-10.2,4.8-10.2,11.1s4.3,11.2,10.2,11.2 C124.7,50.4,128.8,45.8,128.8,39.2z"></path> <path class="st2" d="M146.3,18.7h10.4v4.9c3.3-3.8,8.1-5.9,13.2-5.8c11.3,0,18.5,9.5,18.5,21.2c0,11.9-7.4,21.4-18.7,21.4 c-4.7,0.1-9.3-1.9-12.4-5.5v16.5h-11L146.3,18.7z M177.2,39.2c0-6.5-4.2-11.1-10.2-11.1c-5.6,0-9.8,4.6-9.8,11.1s4.1,11.2,9.8,11.2 C173,50.4,177.2,45.7,177.2,39.2L177.2,39.2z"></path> <path class="st2" d="M192.7,7.2c-0.3-3.6,2.4-6.7,6-7c3.6-0.3,6.7,2.4,7,6c0,0.3,0,0.7,0,1c-0.3,3.6-3.4,6.3-7,6 C195.5,13,192.9,10.4,192.7,7.2z M193.7,18.7h11v41h-11V18.7z"></path> <path class="st2" d="M214.1,46.5V27.6h-6v-8.9h6v-7.9l11-2.5v10.3h11.3v8.9h-11.3v18.8c0,3.5,1.7,4.7,3.7,4.7 c1.9-0.1,3.7-0.7,5.2-1.7l3.1,8.1c-3.1,2-6.7,3.1-10.4,3.1C218.5,60.6,214.1,55.8,214.1,46.5z"></path> <path class="st2" d="M239.3,39.2c0-11.8,7.2-21.3,18.5-21.3c4.8,0,9.9,1.9,12.8,5.8v-5h10.8v41h-10.8v-4.9c-2.9,3.9-8,5.7-12.8,5.7 C246.5,60.6,239.3,51.1,239.3,39.2z M270.4,39.2c0-6.4-4.1-11.1-9.8-11.1c-5.9,0-10.2,4.8-10.2,11.1s4.3,11.2,10.2,11.2 C266.3,50.4,270.4,45.8,270.4,39.2z"></path> <path class="st2" d="M287.9,5.8h11v54h-11V5.8z"></path> <path class="st2" d="M305.5,18.7h10.4v4.9c3.3-3.8,8.1-5.9,13.1-5.8c11.3,0,18.5,9.5,18.5,21.2c0,11.9-7.4,21.4-18.7,21.4 c-4.7,0.1-9.3-1.9-12.4-5.5v16.5h-11L305.5,18.7z M336.3,39.2c0-6.5-4.2-11.1-10.2-11.1c-5.6,0-9.8,4.6-9.8,11.1s4.1,11.2,9.8,11.2 C332.1,50.4,336.3,45.7,336.3,39.2z"></path> <path class="st2" d="M348,18.7h11l7.6,21.1c1.6,4.3,2.9,8.5,3,9.1c0.1-0.6,1.5-5,3-9l7.6-21.2h10.9L375,59.8h-10.8L348,18.7z"></path> <path class="st3" d="M389.2,54.2c-0.1-3.6,2.8-6.6,6.4-6.6c3.6-0.1,6.6,2.8,6.6,6.4c0.1,3.6-2.8,6.6-6.4,6.6c-0.1,0-0.1,0-0.2,0 c-3.5,0-6.4-2.8-6.5-6.3C389.2,54.2,389.2,54.2,389.2,54.2z"></path> <path class="st3" d="M409.9,39.2c0-11.9,9.7-21.3,21.9-21.3c5.4,0,10.6,1.8,14.7,5.2l-6.6,7.7c-2.1-1.9-4.9-2.9-7.8-2.8 c-6.4,0-11,4.7-11,11.1s4.3,11.2,11.3,11.2c3.3,0,6.5-1.2,8.9-3.4l5.8,8.2c-4.3,3.5-9.8,5.4-15.3,5.3 C419.6,60.6,409.9,51.1,409.9,39.2z"></path> <path class="st3" d="M450.3,39.2c0-11.9,9.7-21.3,21.9-21.3s22,9.4,22,21.3s-9.7,21.3-22,21.3S450.3,51.1,450.3,39.2z M482.9,39.2 c0-6.4-4.6-11.1-10.8-11.1s-10.7,4.8-10.7,11.1s4.6,11.2,10.7,11.2S482.9,45.7,482.9,39.2L482.9,39.2z"></path> <path class="st3" d="M501.3,18.7H512v5.5c2.8-4,7.3-6.3,12.1-6.3c6.5,0,10.5,2.7,12.6,7.3c2.9-4.5,7.9-7.3,13.3-7.3 c11.6,0,15.2,8,15.2,18.5v23.4h-11v-22c0-5.4-1.3-9.4-7.1-9.4c-5.4,0-8.4,4.3-8.4,9.8v21.7h-11v-22c0-5.4-1.2-9.4-7.1-9.4 c-5.6,0-8.4,4.8-8.4,10.2v21.3h-11L501.3,18.7z"></path> </svg> 