<svg xmlns="http://www.w3.org/2000/svg" width="240" height="48" viewBox="0 0 240 48" fill="none">
  <title>Sovrium</title>
  <!-- Sovereign Shield + SOVRIUM wordmark - Dark variant (for light backgrounds) -->

  <!-- Shield mark (scaled to fit 48px height) -->
  <g transform="translate(0, 2) scale(0.54)">
    <path d="M4 4 H68 V48 L36 76 L4 48 Z" fill="#0a0a0a"/>
    <path d="M16 22 L36 40 L56 22 L56 28 L36 46 L16 28 Z" fill="#fff"/>
    <path d="M16 36 L36 54 L56 36 L56 42 L36 60 L16 42 Z" fill="#fff"/>
  </g>

  <!-- SOVRIUM wordmark (outlined, DM Sans SemiBold 600) -->
  <path d="M59.00 32.63L59.00 32.63Q57.26 32.63 55.90 32.01Q54.54 31.38 53.78 30.23Q53.02 29.08 53 27.50L53 27.50L55.92 27.50Q55.92 28.30 56.30 28.93Q56.68 29.57 57.36 29.94Q58.04 30.30 59.00 30.30L59.00 30.30Q59.83 30.30 60.44 30.04Q61.05 29.77 61.38 29.28Q61.72 28.79 61.72 28.12L61.72 28.12Q61.72 27.36 61.36 26.86Q61.00 26.37 60.38 26.03Q59.76 25.68 58.96 25.42Q58.15 25.15 57.26 24.85L57.26 24.85Q55.35 24.21 54.38 23.21Q53.41 22.21 53.41 20.53L53.41 20.53Q53.41 19.13 54.08 18.11Q54.75 17.10 55.96 16.54Q57.16 15.97 58.75 15.97L58.75 15.97Q60.36 15.97 61.57 16.55Q62.78 17.12 63.48 18.15Q64.18 19.17 64.20 20.60L64.20 20.60L61.26 20.60Q61.23 20.00 60.94 19.48Q60.64 18.96 60.07 18.63Q59.51 18.30 58.70 18.30L58.70 18.30Q58.01 18.27 57.47 18.52Q56.93 18.76 56.62 19.21Q56.31 19.65 56.31 20.32L56.31 20.32Q56.31 20.97 56.60 21.39Q56.89 21.82 57.44 22.10Q57.99 22.39 58.73 22.64Q59.46 22.90 60.34 23.20L60.34 23.20Q61.53 23.59 62.51 24.15Q63.49 24.71 64.06 25.61Q64.64 26.51 64.64 27.93L64.64 27.93Q64.64 29.18 63.99 30.25Q63.35 31.32 62.11 31.97Q60.87 32.63 59.00 32.63ZM75.17 32.63L75.17 32.63Q72.84 32.63 71.06 31.58Q69.28 30.53 68.27 28.66Q67.25 26.78 67.25 24.30L67.25 24.30Q67.25 21.84 68.27 19.96Q69.28 18.09 71.06 17.03Q72.84 15.97 75.17 15.97L75.17 15.97Q77.53 15.97 79.33 17.03Q81.12 18.09 82.11 19.96Q83.10 21.84 83.10 24.30L83.10 24.30Q83.10 26.78 82.11 28.66Q81.12 30.53 79.33 31.58Q77.53 32.63 75.17 32.63ZM75.19 30.14L75.19 30.14Q76.73 30.14 77.88 29.44Q79.03 28.74 79.65 27.43Q80.27 26.12 80.27 24.30L80.27 24.30Q80.27 22.48 79.65 21.17Q79.03 19.86 77.88 19.16Q76.73 18.46 75.19 18.46L75.19 18.46Q73.65 18.46 72.50 19.16Q71.35 19.86 70.72 21.17Q70.08 22.48 70.08 24.30L70.08 24.30Q70.08 26.12 70.72 27.43Q71.35 28.74 72.50 29.44Q73.65 30.14 75.19 30.14ZM94.32 32.35L90.96 32.35L85.05 16.25L88.02 16.25L92.64 29.52L92.64 29.52L97.33 16.25L100.25 16.25L94.32 32.35ZM105.54 32.35L102.78 32.35L102.78 16.25L108.55 16.25Q110.46 16.25 111.71 16.91Q112.97 17.56 113.58 18.65Q114.19 19.75 114.19 21.13L114.19 21.13Q114.19 22.41 113.59 23.52Q112.99 24.62 111.72 25.29Q110.46 25.96 108.48 25.96L108.48 25.96L105.54 25.96L105.54 32.35ZM114.32 32.35L111.17 32.35L107.79 25.24L110.78 25.24L114.32 32.35ZM105.54 18.55L105.54 23.91L108.37 23.91Q109.91 23.91 110.63 23.16Q111.36 22.41 111.36 21.20L111.36 21.20Q111.36 20.00 110.64 19.27Q109.93 18.55 108.37 18.55L108.37 18.55L105.54 18.55ZM120.30 32.35L117.54 32.35L117.54 16.25L120.30 16.25L120.30 32.35ZM130.14 32.63L130.14 32.63Q128.39 32.63 126.97 31.94Q125.56 31.25 124.72 29.82Q123.88 28.39 123.88 26.23L123.88 26.23L123.88 16.25L126.64 16.25L126.64 26.26Q126.64 27.57 127.08 28.42Q127.51 29.27 128.31 29.69Q129.10 30.12 130.18 30.12L130.18 30.12Q131.29 30.12 132.08 29.69Q132.87 29.27 133.30 28.42Q133.72 27.57 133.72 26.26L133.72 26.26L133.72 16.25L136.48 16.25L136.48 26.23Q136.48 28.39 135.63 29.82Q134.78 31.25 133.33 31.94Q131.88 32.63 130.14 32.63ZM142.85 32.35L140.09 32.35L140.09 16.25L143.35 16.25L148.51 26.65L148.51 26.65L153.61 16.25L156.90 16.25L156.90 32.35L154.14 32.35L154.14 20.99L154.14 20.99L149.59 30.10L147.43 30.10L142.85 21.01L142.85 21.01L142.85 32.35Z" fill="#0a0a0a"/>
</svg>
