<svg xmlns="http://www.w3.org/2000/svg" width="240" height="48" viewBox="0 0 240 48" fill="none">
  <title>Sovrium</title>
  <!-- Sovereign Shield + SOVRIUM wordmark - Light variant (for dark backgrounds) -->

  <!-- Shield mark (scaled to fit 48px height) -->
  <g transform="translate(0, 2) scale(0.54)">
    <path d="M4 4 H68 V48 L36 76 L4 48 Z" fill="#fff"/>
    <path d="M16 22 L36 40 L56 22 L56 28 L36 46 L16 28 Z" fill="#0a0a0a"/>
    <path d="M16 36 L36 54 L56 36 L56 42 L36 60 L16 42 Z" fill="#0a0a0a"/>
  </g>

  <!-- SOVRIUM wordmark (outlined) -->
  <path d="M58.82 32.26L58.82 32.26Q57.15 32.26 55.84 31.69Q54.53 31.12 53.77 30.02Q53.01 28.92 52.99 27.36L52.99 27.36L56.14 27.36Q56.16 28.04 56.49 28.59Q56.82 29.14 57.40 29.46Q57.98 29.78 58.80 29.78L58.80 29.78Q59.50 29.78 60.02 29.55Q60.54 29.32 60.82 28.90Q61.11 28.48 61.11 27.91L61.11 27.91Q61.11 27.25 60.79 26.81Q60.47 26.37 59.91 26.06Q59.35 25.75 58.61 25.50Q57.87 25.25 57.06 24.96L57.06 24.96Q55.23 24.37 54.28 23.38Q53.32 22.39 53.32 20.76L53.32 20.76Q53.32 19.37 53.99 18.38Q54.66 17.39 55.85 16.86Q57.04 16.34 58.56 16.34L58.56 16.34Q60.12 16.34 61.30 16.88Q62.47 17.41 63.16 18.43Q63.86 19.44 63.88 20.80L63.88 20.80L60.71 20.80Q60.69 20.30 60.41 19.84Q60.14 19.39 59.66 19.12Q59.17 18.84 58.51 18.84L58.51 18.84Q57.94 18.82 57.47 19.02Q56.99 19.22 56.72 19.60Q56.44 19.99 56.44 20.56L56.44 20.56Q56.44 21.11 56.72 21.48Q56.99 21.86 57.48 22.13Q57.96 22.41 58.62 22.64Q59.28 22.87 60.05 23.11L60.05 23.11Q61.20 23.51 62.16 24.05Q63.13 24.59 63.70 25.44Q64.28 26.30 64.28 27.71L64.28 27.71Q64.28 28.92 63.64 29.95Q63 30.99 61.80 31.63Q60.60 32.26 58.82 32.26Z M75.67 32.26L75.67 32.26Q73.43 32.26 71.71 31.25Q70.00 30.24 69.03 28.45Q68.06 26.65 68.06 24.30L68.06 24.30Q68.06 21.95 69.03 20.15Q70.00 18.36 71.71 17.35Q73.43 16.34 75.67 16.34L75.67 16.34Q77.94 16.34 79.65 17.35Q81.37 18.36 82.33 20.15Q83.28 21.95 83.28 24.30L83.28 24.30Q83.28 26.65 82.33 28.45Q81.37 30.24 79.65 31.25Q77.94 32.26 75.67 32.26ZM75.67 29.60L75.67 29.60Q77.08 29.60 78.10 28.95Q79.13 28.30 79.70 27.12Q80.27 25.93 80.27 24.30L80.27 24.30Q80.27 22.65 79.70 21.47Q79.13 20.30 78.10 19.66Q77.08 19.02 75.67 19.02L75.67 19.02Q74.29 19.02 73.25 19.66Q72.22 20.30 71.65 21.47Q71.07 22.65 71.07 24.30L71.07 24.30Q71.07 25.93 71.65 27.12Q72.22 28.30 73.25 28.95Q74.29 29.60 75.67 29.60Z M95.65 32L92.00 32L86.39 16.60L89.55 16.60L93.82 28.96L93.82 28.96L98.11 16.60L101.26 16.60L95.65 32Z M107.84 32L104.87 32L104.87 16.60L110.61 16.60Q112.48 16.60 113.69 17.24Q114.90 17.88 115.49 18.94Q116.09 20.01 116.09 21.31L116.09 21.31Q116.09 22.54 115.51 23.61Q114.94 24.67 113.72 25.32Q112.50 25.97 110.59 25.97L110.59 25.97L107.84 25.97L107.84 32ZM116.24 32L112.85 32L109.68 25.22L112.90 25.22L116.24 32ZM107.84 19.09L107.84 23.82L110.43 23.82Q111.77 23.82 112.41 23.16Q113.05 22.50 113.05 21.42L113.05 21.42Q113.05 20.34 112.42 19.71Q111.80 19.09 110.43 19.09L110.43 19.09L107.84 19.09Z M123.48 32L120.51 32L120.51 16.60L123.48 16.60L123.48 32Z M134.21 32.26L134.21 32.26Q132.52 32.26 131.13 31.58Q129.75 30.90 128.93 29.54Q128.12 28.17 128.12 26.06L128.12 26.06L128.12 16.60L131.09 16.60L131.09 26.08Q131.09 27.23 131.46 28.01Q131.84 28.79 132.55 29.16Q133.27 29.54 134.26 29.54L134.26 29.54Q135.27 29.54 135.98 29.16Q136.70 28.79 137.07 28.01Q137.45 27.23 137.45 26.08L137.45 26.08L137.45 16.60L140.42 16.60L140.42 26.06Q140.42 28.17 139.58 29.54Q138.75 30.90 137.33 31.58Q135.91 32.26 134.21 32.26Z M148.05 32L145.08 32L145.08 16.60L148.62 16.60L153.33 26.21L153.33 26.21L158.00 16.60L161.54 16.60L161.54 32L158.57 32L158.57 21.66L158.57 21.66L154.50 29.84L152.14 29.84L148.05 21.66L148.05 21.66L148.05 32Z" fill="#fff"/>
</svg>
