<svg xmlns="http://www.w3.org/2000/svg" width="240" height="48" viewBox="0 0 240 48" fill="none">
  <title>Sovrium</title>
  <!-- Sovereign Shield + SOVRIUM wordmark - Dark variant (for light backgrounds) -->

  <!-- Shield mark (scaled to fit 48px height) -->
  <g transform="translate(0, 2) scale(0.54)">
    <path d="M10 4 Q4 4 4 10 V48 L34 76 Q36 78 38 76 L68 48 V10 Q68 4 62 4 Z" fill="#0a0a0a"/>
    <path d="M16 22 L36 40 L56 22 L56 28 L36 46 L16 28 Z" fill="#fff"/>
    <path d="M16 36 L36 54 L56 36 L56 42 L36 60 L16 42 Z" fill="#fff"/>
  </g>

  <!-- SOVRIUM wordmark (outlined) -->
  <path d="M58.62 32.26L58.62 32.26Q56.93 32.26 55.67 31.65Q54.42 31.03 53.74 29.93Q53.06 28.83 53.06 27.38L53.06 27.38L54.99 27.38Q54.99 28.28 55.41 29.04Q55.83 29.80 56.63 30.25Q57.43 30.70 58.62 30.70L58.62 30.70Q59.66 30.70 60.39 30.36Q61.13 30.02 61.52 29.43Q61.90 28.83 61.90 28.08L61.90 28.08Q61.90 27.25 61.54 26.69Q61.17 26.13 60.54 25.76Q59.90 25.40 59.06 25.11Q58.23 24.83 57.26 24.52L57.26 24.52Q55.32 23.90 54.45 22.97Q53.58 22.03 53.58 20.56L53.58 20.56Q53.58 19.31 54.17 18.36Q54.75 17.41 55.84 16.88Q56.93 16.34 58.42 16.34L58.42 16.34Q59.90 16.34 60.99 16.89Q62.08 17.44 62.69 18.39Q63.31 19.35 63.31 20.60L63.31 20.60L61.37 20.60Q61.37 19.97 61.04 19.35Q60.71 18.73 60.04 18.33Q59.37 17.92 58.36 17.92L58.36 17.92Q57.52 17.90 56.87 18.20Q56.22 18.49 55.86 19.04Q55.50 19.59 55.50 20.38L55.50 20.38Q55.50 21.13 55.82 21.59Q56.14 22.06 56.74 22.38Q57.35 22.69 58.16 22.96Q58.97 23.22 59.96 23.55L59.96 23.55Q61.09 23.93 61.95 24.46Q62.82 25.00 63.32 25.84Q63.81 26.68 63.81 27.97L63.81 27.97Q63.81 29.07 63.23 30.05Q62.65 31.03 61.50 31.65Q60.36 32.26 58.62 32.26Z M74.86 32.26L74.86 32.26Q72.75 32.26 71.14 31.26Q69.53 30.26 68.63 28.47Q67.73 26.68 67.73 24.30L67.73 24.30Q67.73 21.95 68.63 20.15Q69.53 18.36 71.14 17.35Q72.75 16.34 74.86 16.34L74.86 16.34Q77.01 16.34 78.62 17.35Q80.23 18.36 81.11 20.15Q81.99 21.95 81.99 24.30L81.99 24.30Q81.99 26.68 81.11 28.47Q80.23 30.26 78.62 31.26Q77.01 32.26 74.86 32.26ZM74.86 30.64L74.86 30.64Q76.44 30.64 77.62 29.88Q78.80 29.12 79.44 27.70Q80.09 26.28 80.09 24.30L80.09 24.30Q80.09 22.32 79.44 20.90Q78.80 19.48 77.62 18.73Q76.44 17.99 74.86 17.99L74.86 17.99Q73.30 17.99 72.12 18.73Q70.94 19.48 70.28 20.90Q69.62 22.32 69.62 24.30L69.62 24.30Q69.62 26.28 70.28 27.70Q70.94 29.12 72.12 29.88Q73.30 30.64 74.86 30.64Z M93.27 32L91.12 32L85.33 16.60L87.33 16.60L92.19 30.04L92.19 30.04L97.10 16.60L99.06 16.60L93.27 32Z M104.87 32L103.02 32L103.02 16.60L107.99 16.60Q109.79 16.60 110.94 17.20Q112.08 17.81 112.63 18.82Q113.18 19.83 113.18 21.11L113.18 21.11Q113.18 22.34 112.62 23.38Q112.06 24.41 110.89 25.03Q109.73 25.64 107.90 25.64L107.90 25.64L104.87 25.64L104.87 32ZM113.34 32L111.16 32L107.77 25.11L109.84 25.11L113.34 32ZM104.87 18.16L104.87 24.19L107.86 24.19Q109.62 24.19 110.44 23.33Q111.27 22.47 111.27 21.13L111.27 21.13Q111.27 19.77 110.47 18.97Q109.66 18.16 107.84 18.16L107.84 18.16L104.87 18.16Z M119.78 32L117.93 32L117.93 16.60L119.78 16.60L119.78 32Z M130.41 32.26L130.41 32.26Q128.82 32.26 127.54 31.63Q126.25 30.99 125.48 29.68Q124.71 28.37 124.71 26.32L124.71 26.32L124.71 16.60L126.56 16.60L126.56 26.35Q126.56 27.84 127.05 28.79Q127.55 29.73 128.43 30.17Q129.31 30.61 130.45 30.61L130.45 30.61Q131.62 30.61 132.48 30.17Q133.33 29.73 133.82 28.79Q134.30 27.84 134.30 26.35L134.30 26.35L134.30 16.60L136.15 16.60L136.15 26.32Q136.15 28.37 135.38 29.68Q134.61 30.99 133.31 31.63Q132.01 32.26 130.41 32.26Z M142.93 32L141.08 32L141.08 16.60L143.23 16.60L148.47 27.45L148.47 27.45L153.66 16.60L155.84 16.60L155.84 32L153.99 32L153.99 19.92L153.99 19.92L149.15 29.98L147.77 29.98L142.93 20.01L142.93 20.01L142.93 32Z" fill="#0a0a0a"/>
</svg>
